<svg width="400" height="400" viewBox="0 0 400 400" fill="none" xmlns="http://www.w3.org/2000/svg">
<g clip-path="url(#clip0_407_16728)">
<rect width="400" height="400" fill="black"/>
<path fill-rule="evenodd" clip-rule="evenodd" d="M191.208 43.6165C203.184 42.9165 209.173 57.8509 200.032 65.6201C178.84 83.631 166.406 109.931 166.406 138.281C166.406 190.921 209.079 233.594 261.719 233.594C290.069 233.594 316.369 221.16 334.38 199.967C342.141 190.836 357.062 196.802 356.385 208.768C351.719 291.337 283.258 356.25 200.195 356.25C113.793 356.25 43.75 286.207 43.75 199.805C43.75 117.231 107.925 49.0142 189.921 43.6919L190.002 43.6869L191.208 43.6165Z" fill="white"/>
</g>
<defs>
<clipPath id="clip0_407_16728">
<rect width="400" height="400" fill="white"/>
</clipPath>
</defs>
</svg>
